<?xml version="1.0" encoding="UTF-8"?>
<svg width="64" height="64" version="1.1" viewBox="0 0 64 64" xmlns="http://www.w3.org/2000/svg">
  <!-- Camera body -->
  <rect x="8" y="16" width="48" height="36" rx="4" fill="#3daee9" stroke="#31363b" stroke-width="2"/>
  
  <!-- Lens -->
  <circle cx="32" cy="34" r="12" fill="#31363b" stroke="#232629" stroke-width="2"/>
  <circle cx="32" cy="34" r="8" fill="#4d4d4d"/>
  <circle cx="32" cy="34" r="4" fill="#7f8c8d"/>
  
  <!-- Flash -->
  <rect x="46" y="20" width="6" height="6" rx="1" fill="#f67400"/>
  
  <!-- Viewfinder -->
  <rect x="12" y="20" width="8" height="5" rx="1" fill="#232629"/>
  
  <!-- Settings gear overlay -->
  <g transform="translate(42, 42)" fill="#eff0f1" stroke="#31363b" stroke-width="1">
    <circle cx="8" cy="8" r="6"/>
    <path d="M 8,2 L 8,4 M 8,12 L 8,14 M 2,8 L 4,8 M 12,8 L 14,8 M 3.5,3.5 L 5,5 M 11,11 L 12.5,12.5 M 3.5,12.5 L 5,11 M 11,5 L 12.5,3.5"/>
  </g>
</svg>
